<svg width="105" height="31" viewBox="0 0 105 31" fill="none" xmlns="http://www.w3.org/2000/svg">
<path d="M100.964 0.0471191H4.66728C2.53996 0.0471191 0.81543 1.72605 0.81543 3.79712V26.2971C0.81543 28.3682 2.53996 30.0471 4.66728 30.0471H100.964C103.091 30.0471 104.815 28.3682 104.815 26.2971V3.79712C104.815 1.72605 103.091 0.0471191 100.964 0.0471191Z" fill="black"/>
<path d="M100.964 0.647119C101.822 0.647119 102.645 0.978993 103.251 1.56973C103.858 2.16047 104.199 2.96169 104.199 3.79712V26.2971C104.199 27.1326 103.858 27.9338 103.251 28.5245C102.645 29.1152 101.822 29.4471 100.964 29.4471H4.66728C3.80916 29.4471 2.98618 29.1152 2.3794 28.5245C1.77261 27.9338 1.43173 27.1326 1.43173 26.2971V3.79712C1.43173 2.96169 1.77261 2.16047 2.3794 1.56973C2.98618 0.978993 3.80916 0.647119 4.66728 0.647119H100.964ZM100.964 0.0471191H4.66728C3.64571 0.0471191 2.66597 0.442207 1.94361 1.14547C1.22125 1.84873 0.81543 2.80256 0.81543 3.79712V26.2971C0.81543 27.2917 1.22125 28.2455 1.94361 28.9488C2.66597 29.652 3.64571 30.0471 4.66728 30.0471H100.964C101.985 30.0471 102.965 29.652 103.687 28.9488C104.41 28.2455 104.815 27.2917 104.815 26.2971V3.79712C104.815 2.80256 104.41 1.84873 103.687 1.14547C102.965 0.442207 101.985 0.0471191 100.964 0.0471191Z" fill="#A6A6A6"/>
<path d="M25.554 14.5321C25.5327 12.2289 27.4911 11.1084 27.5806 11.0562C26.4715 9.48195 24.7525 9.26685 24.1484 9.2497C22.7046 9.10178 21.3041 10.0908 20.5686 10.0908C19.8184 10.0908 18.6859 9.26399 17.4652 9.28829C15.8944 9.31187 14.4249 10.1973 13.619 11.5722C11.9557 14.3756 13.1962 18.4953 14.7897 20.7613C15.5869 21.8711 16.5183 23.1102 17.7375 23.0666C18.9303 23.0187 19.3758 22.3263 20.8152 22.3263C22.2414 22.3263 22.6598 23.0666 23.9032 23.0387C25.1834 23.0187 25.9893 21.9239 26.7585 20.8041C27.6797 19.5322 28.0497 18.2794 28.0644 18.2151C28.0343 18.2051 25.5783 17.2926 25.554 14.5321Z" fill="white"/>
<path d="M23.205 7.75893C23.8465 6.97787 24.2855 5.91525 24.1636 4.83691C23.2351 4.87693 22.0739 5.46219 21.4052 6.22611C20.8136 6.89926 20.2851 8.00261 20.4216 9.04022C21.4647 9.11597 22.5356 8.52785 23.205 7.75893Z" fill="white"/>
<path d="M42.8155 22.9072H41.1485L40.2354 20.1138H37.0616L36.1918 22.9072H34.5688L37.7134 13.3972H39.6556L42.8155 22.9072ZM39.9602 18.9418L39.1344 16.4586C39.0471 16.2049 38.8834 15.6075 38.6419 14.6671H38.6125C38.5164 15.0715 38.3615 15.6689 38.1486 16.4586L37.3375 18.9418H39.9602Z" fill="white"/>
<path d="M50.9022 19.3941C50.9022 20.5603 50.5785 21.4821 49.9311 22.1589C49.3512 22.7613 48.6311 23.0621 47.7716 23.0621C46.8438 23.0621 46.1773 22.7377 45.7714 22.0888H45.742V25.7012H44.1771V18.3071C44.1771 17.574 44.1573 16.8215 44.1191 16.0497H45.4954L45.5828 17.1366H45.6121C46.134 16.3177 46.926 15.9089 47.9889 15.9089C48.8198 15.9089 49.5134 16.2284 50.0683 16.8679C50.6247 17.5082 50.9022 18.35 50.9022 19.3941ZM49.3079 19.4498C49.3079 18.7824 49.1537 18.2321 48.844 17.7991C48.5056 17.3474 48.0512 17.1216 47.4817 17.1216C47.0956 17.1216 46.7447 17.2474 46.4313 17.4954C46.1171 17.7455 45.9116 18.072 45.8154 18.4765C45.767 18.6652 45.7428 18.8195 45.7428 18.941V20.0844C45.7428 20.5832 45.8999 21.0041 46.214 21.3478C46.5282 21.6915 46.9363 21.863 47.4383 21.863C48.0278 21.863 48.4865 21.6415 48.8146 21.1999C49.1435 20.7575 49.3079 20.1744 49.3079 19.4498Z" fill="white"/>
<path d="M59.0035 19.3941C59.0035 20.5603 58.6798 21.4821 58.0316 22.1589C57.4525 22.7613 56.7324 23.0621 55.8729 23.0621C54.9451 23.0621 54.2786 22.7377 53.8735 22.0888H53.8441V25.7012H52.2792V18.3071C52.2792 17.574 52.2594 16.8215 52.2212 16.0497H53.5975L53.6848 17.1366H53.7142C54.2353 16.3177 55.0273 15.9089 56.0909 15.9089C56.9211 15.9089 57.6147 16.2284 58.1711 16.8679C58.7253 17.5082 59.0035 18.35 59.0035 19.3941ZM57.4092 19.4498C57.4092 18.7824 57.2543 18.2321 56.9446 17.7991C56.6062 17.3474 56.1533 17.1216 55.583 17.1216C55.1962 17.1216 54.846 17.2474 54.5319 17.4954C54.2177 17.7455 54.0129 18.072 53.9168 18.4765C53.8691 18.6652 53.8441 18.8195 53.8441 18.941V20.0844C53.8441 20.5832 54.0012 21.0041 54.3139 21.3478C54.628 21.6908 55.0361 21.863 55.5397 21.863C56.1291 21.863 56.5878 21.6415 56.9159 21.1999C57.2448 20.7575 57.4092 20.1744 57.4092 19.4498Z" fill="white"/>
<path d="M68.061 20.2402C68.061 21.0491 67.7725 21.7073 67.1934 22.2154C66.557 22.7706 65.6711 23.0479 64.5326 23.0479C63.4815 23.0479 62.6388 22.8507 62.001 22.4555L62.3636 21.1856C63.0506 21.5901 63.8045 21.7931 64.6258 21.7931C65.2152 21.7931 65.674 21.663 66.0036 21.4043C66.3317 21.1456 66.4953 20.7983 66.4953 20.3653C66.4953 19.9794 66.3603 19.6542 66.0894 19.3906C65.8201 19.1269 65.3701 18.8818 64.7418 18.6552C63.0315 18.0342 62.1771 17.1245 62.1771 15.9283C62.1771 15.1465 62.4766 14.5055 63.0763 14.0067C63.6738 13.5072 64.4709 13.2578 65.4677 13.2578C66.3566 13.2578 67.095 13.4086 67.6845 13.7094L67.2932 14.9514C66.7427 14.6599 66.1203 14.5141 65.4237 14.5141C64.8732 14.5141 64.443 14.6463 64.1348 14.9093C63.8742 15.1444 63.7435 15.4309 63.7435 15.7704C63.7435 16.1462 63.8925 16.4571 64.192 16.7015C64.4526 16.9273 64.926 17.1717 65.6131 17.4354C66.4535 17.7648 67.0708 18.15 67.4679 18.5916C67.8636 19.0318 68.061 19.5828 68.061 20.2402Z" fill="white"/>
<path d="M73.2354 17.1931H71.5104V20.5224C71.5104 21.3692 71.8143 21.7922 72.4236 21.7922C72.7032 21.7922 72.9352 21.7687 73.1187 21.7215L73.162 22.8784C72.8537 22.9906 72.4478 23.0471 71.945 23.0471C71.3269 23.0471 70.844 22.8634 70.4953 22.4968C70.1481 22.1295 69.9734 21.5136 69.9734 20.6482V17.1916H68.9458V16.0483H69.9734V14.7927L71.5104 14.3411V16.0483H73.2354V17.1931Z" fill="white"/>
<path d="M81.0181 19.422C81.0181 20.476 80.7084 21.3414 80.0903 22.0181C79.4422 22.7149 78.582 23.0621 77.5096 23.0621C76.4761 23.0621 75.6532 22.7284 75.0396 22.061C74.426 21.3935 74.1191 20.551 74.1191 19.5356C74.1191 18.473 74.4348 17.6026 75.0682 16.9258C75.7002 16.2484 76.5531 15.9097 77.6255 15.9097C78.659 15.9097 79.4907 16.2434 80.1182 16.9115C80.7187 17.5597 81.0181 18.3965 81.0181 19.422ZM79.3945 19.4713C79.3945 18.8388 79.2558 18.2964 78.9746 17.8441C78.6465 17.2967 78.1775 17.0237 77.5697 17.0237C76.9407 17.0237 76.4629 17.2974 76.1347 17.8441C75.8536 18.2972 75.7149 18.8481 75.7149 19.4998C75.7149 20.1323 75.8536 20.6747 76.1347 21.1263C76.4731 21.6737 76.9458 21.9467 77.5558 21.9467C78.1533 21.9467 78.6223 21.668 78.9607 21.112C79.2492 20.6511 79.3945 20.103 79.3945 19.4713Z" fill="white"/>
<path d="M86.1044 17.3896C85.9495 17.3617 85.7843 17.3474 85.6111 17.3474C85.0606 17.3474 84.6349 17.5497 84.3354 17.9548C84.0748 18.3122 83.9442 18.7638 83.9442 19.309V22.9071H82.38L82.3947 18.2092C82.3947 17.4189 82.3748 16.6993 82.3359 16.0504H83.699L83.7563 17.3624H83.7996C83.9647 16.9115 84.2253 16.5485 84.582 16.2762C84.9307 16.0311 85.3072 15.9089 85.7131 15.9089C85.8577 15.9089 85.9884 15.9189 86.1044 15.9368V17.3896Z" fill="white"/>
<path d="M93.1029 19.1541C93.1029 19.4271 93.0846 19.6572 93.0457 19.8451H88.3509C88.3693 20.5226 88.5961 21.0407 89.0321 21.398C89.4277 21.7174 89.9393 21.8775 90.5677 21.8775C91.2628 21.8775 91.897 21.7696 92.4673 21.553L92.7124 22.6107C92.046 22.8936 91.2591 23.0344 90.3511 23.0344C89.2589 23.0344 88.4016 22.7214 87.7777 22.0961C87.1552 21.4709 86.8433 20.6312 86.8433 19.5779C86.8433 18.5438 87.1332 17.6828 87.7138 16.996C88.3216 16.2628 89.1429 15.8962 90.1764 15.8962C91.1916 15.8962 91.9601 16.2628 92.482 16.996C92.8952 17.5784 93.1029 18.2987 93.1029 19.1541ZM91.6107 18.7589C91.621 18.3073 91.5189 17.9171 91.3068 17.5877C91.036 17.1639 90.6198 16.9524 90.0597 16.9524C89.5481 16.9524 89.1319 17.1589 88.8141 17.5734C88.5535 17.9029 88.3986 18.298 88.3509 18.7582H91.6107V18.7589Z" fill="white"/>
<path d="M39.4426 7.54667C39.4426 8.38776 39.1835 9.0209 38.6661 9.44609C38.1867 9.83841 37.5056 10.0349 36.6233 10.0349C36.1858 10.0349 35.8115 10.0163 35.498 9.97919V5.38356C35.9069 5.31925 36.3473 5.28638 36.8229 5.28638C37.6634 5.28638 38.2968 5.46431 38.724 5.82019C39.2026 6.22251 39.4426 6.79777 39.4426 7.54667ZM38.6316 7.56739C38.6316 7.02215 38.4833 6.60411 38.1867 6.31255C37.8902 6.0217 37.4571 5.87593 36.8868 5.87593C36.6446 5.87593 36.4383 5.89165 36.2673 5.92452V9.41822C36.362 9.43251 36.5352 9.43894 36.787 9.43894C37.3757 9.43894 37.83 9.27959 38.15 8.96087C38.4701 8.64216 38.6316 8.17767 38.6316 7.56739Z" fill="white"/>
<path d="M43.7434 8.28121C43.7434 8.7993 43.5915 9.22377 43.2876 9.55678C42.969 9.89907 42.547 10.0699 42.02 10.0699C41.512 10.0699 41.1076 9.90622 40.8059 9.5775C40.505 9.2495 40.3545 8.83574 40.3545 8.33695C40.3545 7.81529 40.5094 7.38724 40.8206 7.05495C41.1318 6.72266 41.5502 6.55615 42.0772 6.55615C42.5852 6.55615 42.9933 6.7198 43.3023 7.0478C43.5959 7.36651 43.7434 7.77813 43.7434 8.28121ZM42.9456 8.3055C42.9456 7.99465 42.8766 7.7281 42.7393 7.50586C42.5778 7.23717 42.3481 7.10282 42.0493 7.10282C41.7403 7.10282 41.5054 7.23717 41.3439 7.50586C41.2059 7.7281 41.1377 7.99894 41.1377 8.31908C41.1377 8.62994 41.2067 8.89648 41.3439 9.11872C41.5106 9.38742 41.7425 9.52176 42.042 9.52176C42.3356 9.52176 42.5661 9.38527 42.732 9.11158C42.8744 8.88505 42.9456 8.61636 42.9456 8.3055Z" fill="white"/>
<path d="M49.5099 6.62476L48.4272 9.9934H47.7226L47.2741 8.53061C47.1603 8.16544 47.0678 7.80242 46.9959 7.44226H46.9819C46.9152 7.81243 46.8227 8.17473 46.7038 8.53061L46.2274 9.9934H45.5147L44.4966 6.62476H45.2871L45.6783 8.22619C45.773 8.60493 45.8508 8.9658 45.9132 9.30738H45.9272C45.9844 9.02583 46.0791 8.6671 46.2127 8.23333L46.7038 6.62547H47.3306L47.8011 8.19903C47.9149 8.58277 48.0074 8.95222 48.0786 9.3081H48.0999C48.152 8.96151 48.2305 8.59206 48.3347 8.19903L48.7546 6.62547H49.5099V6.62476Z" fill="white"/>
<path d="M53.4978 9.99335H52.7285V8.06391C52.7285 7.46936 52.4966 7.17209 52.0312 7.17209C51.8029 7.17209 51.6187 7.25355 51.4756 7.4172C51.3339 7.58084 51.262 7.77378 51.262 7.9946V9.99263H50.4927V7.58727C50.4927 7.29143 50.4832 6.97057 50.4648 6.62327H51.1409L51.1768 7.14994H51.1981C51.2877 6.98629 51.4213 6.85123 51.5967 6.74333C51.8052 6.61756 52.0386 6.55396 52.294 6.55396C52.617 6.55396 52.8856 6.65543 53.0992 6.85909C53.3649 7.10849 53.4978 7.4808 53.4978 7.9753V9.99335Z" fill="white"/>
<path d="M55.6186 9.99344H54.8501V5.0791H55.6186V9.99344Z" fill="white"/>
<path d="M60.1477 8.28121C60.1477 8.7993 59.9958 9.22377 59.6919 9.55678C59.3733 9.89907 58.9506 10.0699 58.4243 10.0699C57.9156 10.0699 57.5112 9.90622 57.2102 9.5775C56.9093 9.2495 56.7588 8.83574 56.7588 8.33695C56.7588 7.81529 56.9137 7.38724 57.2249 7.05495C57.5361 6.72266 57.9545 6.55615 58.4808 6.55615C58.9895 6.55615 59.3968 6.7198 59.7066 7.0478C60.0002 7.36651 60.1477 7.77813 60.1477 8.28121ZM59.3491 8.3055C59.3491 7.99465 59.2801 7.7281 59.1429 7.50586C58.9821 7.23717 58.7516 7.10282 58.4536 7.10282C58.1439 7.10282 57.909 7.23717 57.7482 7.50586C57.6102 7.7281 57.542 7.99894 57.542 8.31908C57.542 8.62994 57.611 8.89648 57.7482 9.11872C57.9149 9.38742 58.1468 9.52176 58.4463 9.52176C58.7399 9.52176 58.9696 9.38527 59.1355 9.11158C59.2787 8.88505 59.3491 8.61636 59.3491 8.3055Z" fill="white"/>
<path d="M63.8709 9.9934H63.1802L63.1229 9.60537H63.1017C62.8653 9.91479 62.5284 10.0699 62.0909 10.0699C61.7643 10.0699 61.5 9.96767 61.3011 9.76473C61.1206 9.58036 61.0303 9.35097 61.0303 9.07871C61.0303 8.66709 61.2064 8.35338 61.561 8.13614C61.9148 7.9189 62.4124 7.81243 63.0532 7.81743V7.75454C63.0532 7.31077 62.8139 7.08925 62.3346 7.08925C61.9933 7.08925 61.6924 7.17286 61.4325 7.33864L61.2762 6.847C61.5977 6.65334 61.9948 6.55615 62.4631 6.55615C63.3674 6.55615 63.821 7.02065 63.821 7.94963V9.19019C63.821 9.52676 63.8379 9.79474 63.8709 9.9934ZM63.0723 8.83574V8.31622C62.2238 8.30193 61.7995 8.52846 61.7995 8.9951C61.7995 9.17089 61.848 9.30238 61.9471 9.39027C62.0462 9.47817 62.1724 9.52176 62.3229 9.52176C62.4917 9.52176 62.6495 9.4696 62.7934 9.36598C62.938 9.26165 63.0268 9.12944 63.0598 8.96723C63.0679 8.93078 63.0723 8.88648 63.0723 8.83574Z" fill="white"/>
<path d="M68.2415 9.99344H67.5589L67.5229 9.45248H67.5017C67.2837 9.8641 66.9122 10.0699 66.3904 10.0699C65.9734 10.0699 65.6262 9.91054 65.351 9.59183C65.0757 9.27312 64.9385 8.85936 64.9385 8.35128C64.9385 7.80603 65.0875 7.36441 65.387 7.02711C65.6769 6.71269 66.0322 6.55547 66.4549 6.55547C66.9196 6.55547 67.2448 6.70769 67.4297 7.01282H67.4444V5.0791H68.2144V9.08589C68.2144 9.41389 68.2232 9.71617 68.2415 9.99344ZM67.4444 8.5728V8.01113C67.4444 7.91394 67.4371 7.83533 67.4231 7.77531C67.3798 7.59523 67.2866 7.44373 67.1449 7.32153C67.0018 7.19933 66.8293 7.13788 66.6304 7.13788C66.3434 7.13788 66.1188 7.24864 65.9536 7.47088C65.7899 7.69313 65.707 7.97682 65.707 8.32341C65.707 8.65641 65.7855 8.92653 65.9433 9.13448C66.11 9.35601 66.3346 9.46678 66.6157 9.46678C66.8682 9.46678 67.0701 9.37459 67.2235 9.18951C67.3717 9.01872 67.4444 8.81291 67.4444 8.5728Z" fill="white"/>
<path d="M74.8206 8.28121C74.8206 8.7993 74.6686 9.22377 74.3648 9.55678C74.0462 9.89907 73.6249 10.0699 73.0971 10.0699C72.5899 10.0699 72.1855 9.90622 71.8831 9.5775C71.5821 9.2495 71.4316 8.83574 71.4316 8.33695C71.4316 7.81529 71.5865 7.38724 71.8977 7.05495C72.209 6.72266 72.6273 6.55615 73.1551 6.55615C73.6623 6.55615 74.0712 6.7198 74.3794 7.0478C74.673 7.36651 74.8206 7.77813 74.8206 8.28121ZM74.0234 8.3055C74.0234 7.99465 73.9544 7.7281 73.8172 7.50586C73.655 7.23717 73.426 7.10282 73.1265 7.10282C72.8182 7.10282 72.5833 7.23717 72.4211 7.50586C72.2831 7.7281 72.2148 7.99894 72.2148 8.31908C72.2148 8.62994 72.2838 8.89648 72.4211 9.11872C72.5877 9.38742 72.8197 9.52176 73.1191 9.52176C73.4127 9.52176 73.644 9.38527 73.8098 9.11158C73.9515 8.88505 74.0234 8.61636 74.0234 8.3055Z" fill="white"/>
<path d="M78.9565 9.99335H78.188V8.06391C78.188 7.46936 77.9561 7.17209 77.49 7.17209C77.2617 7.17209 77.0775 7.25355 76.9351 7.4172C76.7927 7.58084 76.7215 7.77378 76.7215 7.9946V9.99263H75.9515V7.58727C75.9515 7.29143 75.9427 6.97057 75.9243 6.62327H76.5996L76.6356 7.14994H76.6569C76.7471 6.98629 76.8807 6.85123 77.0554 6.74333C77.2646 6.61756 77.4973 6.55396 77.7535 6.55396C78.0757 6.55396 78.3444 6.65543 78.558 6.85909C78.8244 7.10849 78.9565 7.4808 78.9565 7.9753V9.99335Z" fill="white"/>
<path d="M84.1337 7.1858H83.2867V8.82224C83.2867 9.23814 83.4371 9.44609 83.7351 9.44609C83.8731 9.44609 83.9876 9.43466 84.0779 9.41108L84.0977 9.97919C83.9458 10.0349 83.7462 10.0628 83.5003 10.0628C83.1964 10.0628 82.96 9.97276 82.789 9.79268C82.6172 9.6126 82.5321 9.3096 82.5321 8.88441V7.1858H82.0264V6.62483H82.5321V6.00742L83.2859 5.78589V6.62412H84.133V7.1858H84.1337Z" fill="white"/>
<path d="M88.2062 9.99344H87.4362V8.0783C87.4362 7.47446 87.2043 7.17218 86.7397 7.17218C86.3829 7.17218 86.1392 7.34726 86.0057 7.69741C85.9829 7.77102 85.9697 7.86106 85.9697 7.96682V9.99272H85.2012V5.0791H85.9697V7.10929H85.9844C86.2266 6.73984 86.5738 6.55547 87.0237 6.55547C87.3423 6.55547 87.6058 6.65695 87.815 6.86061C88.0756 7.1143 88.2062 7.49161 88.2062 7.9904V9.99344Z" fill="white"/>
<path d="M92.4068 8.1498C92.4068 8.28415 92.3965 8.39706 92.3782 8.48924H90.0712C90.0815 8.82225 90.1916 9.07593 90.4052 9.25173C90.6004 9.40894 90.8522 9.48755 91.1605 9.48755C91.5018 9.48755 91.813 9.43466 92.0934 9.32819L92.2138 9.84842C91.8857 9.98705 91.4996 10.0564 91.0526 10.0564C90.5167 10.0564 90.0947 9.90273 89.7893 9.59545C89.4825 9.28817 89.3306 8.87584 89.3306 8.35847C89.3306 7.85039 89.4722 7.42734 89.7578 7.09005C90.0558 6.72988 90.4587 6.5498 90.9674 6.5498C91.4651 6.5498 91.8431 6.72988 92.0985 7.09005C92.3048 7.37589 92.4068 7.72962 92.4068 8.1498ZM91.6728 7.95615C91.6787 7.7339 91.628 7.54239 91.5238 7.38089C91.3902 7.17294 91.1869 7.06861 90.9116 7.06861C90.6606 7.06861 90.4558 7.17008 90.2995 7.37374C90.1717 7.53596 90.0961 7.72962 90.0712 7.95615H91.6728Z" fill="white"/>
</svg>
