<svg width="21" height="24" viewBox="0 0 21 24" fill="none" xmlns="http://www.w3.org/2000/svg">
<path fill-rule="evenodd" clip-rule="evenodd" d="M5.61654 20.8203C6.03854 20.8203 6.38154 21.1633 6.38154 21.5853C6.38154 22.0073 6.03854 22.3493 5.61654 22.3493C5.19454 22.3493 4.85254 22.0073 4.85254 21.5853C4.85254 21.1633 5.19454 20.8203 5.61654 20.8203Z" stroke="#222222" stroke-width="1.5" stroke-linecap="round" stroke-linejoin="round"/>
<path fill-rule="evenodd" clip-rule="evenodd" d="M16.869 20.8203C17.291 20.8203 17.634 21.1633 17.634 21.5853C17.634 22.0073 17.291 22.3493 16.869 22.3493C16.447 22.3493 16.104 22.0073 16.104 21.5853C16.104 21.1633 16.447 20.8203 16.869 20.8203Z" stroke="#222222" stroke-width="1.5" stroke-linecap="round" stroke-linejoin="round"/>
<path d="M0.944336 4.25L3.02434 4.61L3.98734 16.083C4.06534 17.018 4.84634 17.736 5.78434 17.736H16.6963C17.5923 17.736 18.3523 17.078 18.4813 16.19L19.4303 9.632C19.5473 8.823 18.9203 8.099 18.1033 8.099H3.35834" stroke="#222222" stroke-width="1.5" stroke-linecap="round" stroke-linejoin="round"/>
<path d="M12.3198 11.7969H15.0928" stroke="#222222" stroke-width="1.5" stroke-linecap="round" stroke-linejoin="round"/>
<circle cx="13.8423" cy="3.77806" r="3.0269" fill="#09A66D"/>
</svg>
