<svg width="57" height="56" viewBox="0 0 57 56" fill="none" xmlns="http://www.w3.org/2000/svg">
<g clip-path="url(#clip0_149_171)">
<path d="M42.4242 32.2169C42.4242 22.0386 34.195 13.7877 24.0436 13.7877C13.8923 13.7877 5.66309 22.0386 5.66309 32.2169C5.66309 42.3952 13.8923 50.6462 24.0436 50.6462C34.195 50.6462 42.4242 42.3952 42.4242 32.2169Z" fill="#89C8FD"/>
<path d="M24.0435 13.7877C23.1001 13.7877 22.173 13.859 21.2681 13.9966C30.1022 15.3381 36.8728 22.9846 36.8728 32.2169C36.8728 41.4493 30.1022 49.0957 21.2681 50.4373C22.173 50.5748 23.1001 50.6462 24.0435 50.6462C34.1948 50.6462 42.424 42.3952 42.424 32.2169C42.424 22.0386 34.1948 13.7877 24.0435 13.7877Z" fill="#60B6FF"/>
<path d="M21.6543 20.95C18.8229 22.7244 16.6991 25.563 18.2918 28.7571C19.8846 31.9507 23.4239 30.7087 26.6979 30.2653C29.9719 29.8218 27.4943 39.9355 29.4408 42.4196C31.3874 44.9036 36.8732 39.9355 36.3426 36.7415C35.5564 32.0127 35.2809 30.3537 41.6515 26.9827L41.6686 26.9763C39.5213 19.705 33.0212 14.3098 25.1944 13.8248L25.1936 13.8526C25.1936 13.8526 24.4856 19.1757 21.6543 20.95Z" fill="#BAEB6C"/>
<path d="M35.5596 17.8542C35.5609 17.855 35.5621 17.8563 35.5634 17.8572C35.5621 17.8563 35.5609 17.8555 35.5596 17.8542Z" fill="#BAEB6C"/>
<path d="M37.8076 20.0041C37.8076 20.0045 37.808 20.0049 37.8085 20.0049C37.808 20.0045 37.808 20.0045 37.8076 20.0041Z" fill="#BAEB6C"/>
<path d="M11.8329 40.5563C10.9827 39.2596 13.3373 36.2095 13.8679 33.9028C14.399 31.5961 11.2134 31.7734 10.2402 30.9749C9.26691 30.1764 7.93945 26.7166 6.96619 25.918L6.81067 25.7954C6.06897 27.7949 5.66309 29.9585 5.66309 32.2169C5.66309 38.3086 8.61108 43.709 13.1544 47.0641L13.16 46.6779C13.16 46.6779 13.8679 43.6616 11.8329 40.5563Z" fill="#BAEB6C"/>
<path d="M36.3427 36.7415C36.3389 36.7184 36.335 36.6957 36.3312 36.6727C35.9796 38.0933 35.4634 39.4489 34.8042 40.7178C35.8497 39.4839 36.5482 37.9796 36.3427 36.7415Z" fill="#BAEB6C"/>
<path d="M25.1948 13.8248L25.194 13.8526C25.194 13.8526 25.135 14.2969 24.9829 14.9707C31.4283 17.4103 36.1473 23.3772 36.7967 30.5242C37.6089 29.4133 39.0944 28.3358 41.6519 26.9827L41.669 26.9763C39.5217 19.705 33.0215 14.3098 25.1948 13.8248Z" fill="#96D629"/>
<path d="M24.0184 56C22.7166 56 21.4054 55.8932 20.095 55.6766C13.8312 54.6422 8.3449 51.2306 4.64708 46.0704C0.949269 40.9101 -0.517467 34.6185 0.517323 28.355C0.592091 27.9013 1.0219 27.5945 1.47435 27.6693C1.92809 27.7441 2.23528 28.1726 2.16008 28.6263C1.19835 34.451 2.56212 40.3017 6.00103 45.1005C9.43993 49.8993 14.5412 53.0716 20.3667 54.0338C32.3924 56.0205 43.7897 47.8528 45.7759 35.8288C46.7377 30.0042 45.3739 24.1535 41.935 19.3547C38.4965 14.5558 33.3948 11.3835 27.5697 10.4214C27.116 10.3466 26.8088 9.91808 26.8835 9.46435C26.9587 9.01061 27.3881 8.70385 27.8406 8.77862C34.1048 9.81298 39.5911 13.2245 43.2885 18.3848C46.9863 23.5451 48.4531 29.8367 47.4187 36.1001C46.3843 42.3636 42.9723 47.8494 37.8116 51.5468C33.7302 54.4709 28.9416 56 24.0184 56Z" fill="#09A66D"/>
<path d="M18.9635 20.1126C10.0751 18.6045 4.56104 7.41319 4.56104 7.41319C4.56104 7.41319 13.4584 -1.33297 22.3469 0.174785C31.2353 1.68254 36.7493 12.8738 36.7493 12.8738C36.7493 12.8738 27.8519 21.6204 18.9635 20.1126Z" fill="#49CB5C"/>
<path d="M22.3468 0.174722C20.6494 -0.113242 18.9523 -0.0265113 17.3164 0.301187C25.8336 2.21354 31.0874 12.8738 31.0874 12.8738C31.0874 12.8738 25.2632 18.5984 18.3315 19.9861C18.5405 20.0331 18.7507 20.0763 18.9634 20.1126C27.8519 21.6203 36.7493 12.8738 36.7493 12.8738C36.7493 12.8738 31.2352 1.68247 22.3468 0.174722Z" fill="#07B128"/>
<path d="M36.2469 11.9445L27.5546 10.4782L19.4352 0.0234985C18.7875 0.0615234 18.1458 0.144409 17.5126 0.263184L25.1278 10.0685L18.5734 8.96277L12.9808 1.72693C12.4561 1.96362 11.946 2.21484 11.4542 2.47546L16.1526 8.55432L5.3147 6.72571C4.82806 7.15082 4.56104 7.41315 4.56104 7.41315C4.56104 7.41315 4.73962 7.77502 5.08228 8.37531L15.8613 10.1937L9.88324 14.816C10.2682 15.2125 10.6719 15.6043 11.0941 15.9846L18.0958 10.5709L25.0347 11.7416L15.5977 19.0428C16.1834 19.3162 16.7888 19.5529 17.413 19.7435L27.2692 12.1188L35.967 13.586C36.4712 13.1464 36.7493 12.8738 36.7493 12.8738C36.7493 12.8738 36.5771 12.5251 36.2469 11.9445Z" fill="#09A66D"/>
<path d="M42.7948 9.24945C45.1792 3.60724 53.4409 1.7077 53.4409 1.7077C53.4409 1.7077 57.8368 8.95593 55.4523 14.5981C53.0683 20.2404 44.8062 22.1399 44.8062 22.1399C44.8062 22.1399 40.4103 14.8917 42.7948 9.24945Z" fill="#49CB5C"/>
<path d="M53.441 1.7077C53.441 1.7077 51.5624 2.14008 49.3381 3.20392C50.4793 5.62128 52.2883 10.5273 50.5677 14.5981C49.3206 17.5496 46.4649 19.4769 44.0249 20.6437C44.4654 21.5768 44.8068 22.1399 44.8068 22.1399C44.8068 22.1399 53.0684 20.2404 55.4529 14.5981C57.8369 8.95593 53.441 1.7077 53.441 1.7077Z" fill="#07B128"/>
<path d="M56.1282 9.94458L49.775 12.6097L53.9462 2.63739C53.6476 2.04779 53.4412 1.7077 53.4412 1.7077C53.4412 1.7077 53.0482 1.79828 52.4086 1.99823L48.0977 12.3043L45.4244 5.72681C44.9715 6.12628 44.5443 6.56036 44.1567 7.03076L47.1859 14.4841L44.3405 21.2867C44.6182 21.8289 44.8066 22.1399 44.8066 22.1399C44.8066 22.1399 45.2338 22.0416 45.9208 21.8237L48.859 14.7998L56.1256 11.7518C56.1739 11.1481 56.1713 10.5427 56.1282 9.94458Z" fill="#09A66D"/>
</g>
<defs>
<clipPath id="clip0_149_171">
<rect width="56" height="56" fill="white" transform="translate(0.194336)"/>
</clipPath>
</defs>
</svg>
