<svg width="32" height="32" viewBox="0 0 32 32" fill="none" xmlns="http://www.w3.org/2000/svg">
<path d="M22.4722 10H23.9217C25.1292 10 26.1392 9.1395 26.3712 8H24.9217C23.7147 8 22.7047 8.8605 22.4722 10Z" fill="#09A66D"/>
<path d="M11 5.5C11.0495 5.5 11.0975 5.506 11.147 5.5075L11.498 1.9975C11.5 1.703 11.297 1.5 11.0475 1.5H10.953C10.703 1.5 10.5 1.703 10.5 1.9525L10.8535 5.5075C10.9025 5.506 10.9505 5.5 11 5.5Z" fill="#09A66D"/>
<path d="M7 16C7 15.8295 7.0175 15.663 7.045 15.5H6V15.8425C6.3745 16.021 6.713 16.262 7 16.555V16Z" fill="#09A66D"/>
<path d="M6.59504 3.778L8.30554 6.296C8.43954 6.2095 8.57804 6.1295 8.72054 6.056L7.69204 3.2275C7.68454 3.2075 7.67704 3.189 7.66754 3.171C7.59704 3.03 7.48504 2.9325 7.34554 2.8865C7.20604 2.84 7.05754 2.851 6.92704 2.9165L6.80204 2.979C6.53154 3.114 6.42154 3.444 6.55704 3.7145C6.56804 3.7345 6.58104 3.757 6.59504 3.778Z" fill="#09A66D"/>
<path d="M8.691 14.5H14.26L14.916 11.352C14.9715 11.084 15 10.8095 15 10.536C15 8.2945 13.2055 6.5 11 6.5C8.7945 6.5 7 8.2945 7 10.5C7 10.8095 7.0285 11.084 7.084 11.352L7.662 14.125C8.212 13.44 9.055 13 10 13V14C9.4975 14 9.043 14.1925 8.691 14.5ZM12.5 8.5H13.5V9.5H12.5V8.5ZM12.5 10.5H13.5V11.5H12.5V10.5ZM12.5 12.5H13.5V13.5H12.5V12.5Z" fill="#09A66D"/>
<path d="M5.50028 18.5H6.94978C6.71728 17.3605 5.70778 16.5 4.50028 16.5H3.05078C3.28278 17.6395 4.29278 18.5 5.50028 18.5Z" fill="#09A66D"/>
<path d="M15.4053 3.7765C15.4183 3.7565 15.4318 3.7345 15.4428 3.712C15.5773 3.4435 15.4673 3.1135 15.1968 2.9785L15.0718 2.916C14.9408 2.851 14.7933 2.8395 14.6533 2.886C14.5143 2.9325 14.4018 3.03 14.3363 3.161C14.3223 3.189 14.3143 3.2075 14.3073 3.2265L13.2788 6.055C13.4213 6.1285 13.5598 6.2085 13.6943 6.295L15.4053 3.7765Z" fill="#09A66D"/>
<path d="M14.4922 24.5H28.5002V21.5H13.8262C14.2677 22.4285 14.4917 23.449 14.4922 24.5ZM26.5002 22.5H27.5002V23.5H26.5002V22.5Z" fill="#09A66D"/>
<path d="M13.2314 28.5H26.9999C27.8269 28.5 28.4999 27.827 28.4999 27V25.5H14.4279C14.2684 26.6015 13.8474 27.623 13.2314 28.5ZM26.4999 26.5H27.4999V27.5H26.4999V26.5Z" fill="#09A66D"/>
<path d="M8.071 15.5C8.029 15.661 8 15.8265 8 16V16.5H28.5H29H30.5V15.5H8.071Z" fill="#09A66D"/>
<path d="M8 18.9335C8.1005 18.909 8.201 18.8835 8.2925 18.844C9.8175 18.1915 11.5925 18.5835 12.7055 19.821C12.8995 20.0365 13.0735 20.2655 13.237 20.4995H28.5V17.4995H8V18.9335ZM26.5 18.5H27.5V19.5H26.5V18.5Z" fill="#09A66D"/>
<path d="M11.9625 20.49C11.1485 19.585 9.801 19.2855 8.686 19.7635C8.4715 19.855 8.2395 19.918 8 19.9565V20.898C8.4965 20.713 8.968 20.3235 9.147 20.1455L9.8535 20.8535C9.7365 20.971 8.6735 22 7.5 22C6.3265 22 5.2635 20.971 5.1465 20.8535L5.853 20.1455C6.032 20.323 6.5035 20.7125 7 20.898V19.5H5.5C5.3305 19.5 5.1655 19.484 5.0025 19.4605C4.3015 19.5105 3.5605 19.9025 3.0145 20.5155C2.038 21.614 1.5 23.0285 1.5 24.5C1.5 26.1465 2.154 27.682 3.3405 28.824C4.527 29.9655 6.08 30.555 7.739 30.4955C10.8295 30.376 13.3575 27.862 13.4945 24.7725C13.564 23.187 13.02 21.666 11.9625 20.49ZM7.5 29.5C4.743 29.5 2.5 27.257 2.5 24.5H3.5C3.5 26.7055 5.2945 28.5 7.5 28.5V29.5Z" fill="#09A66D"/>
<path d="M26.3853 14.5C26.1463 13.571 25.6898 12.7115 25.0408 11.99C24.2263 11.085 22.8788 10.7865 21.7638 11.2635C21.6788 11.3 21.5898 11.3305 21.4998 11.359V7C21.4998 6.173 22.1728 5.5 22.9998 5.5H23.4998V4.5H22.9998C21.6213 4.5 20.4998 5.6215 20.4998 7V11.359C20.4098 11.3305 20.3208 11.3 20.2358 11.2635C19.1213 10.7865 17.7733 11.085 16.9588 11.99C16.3098 12.7115 15.8533 13.5705 15.6143 14.5H20.9998H26.3853ZM18.7533 12.069C18.7608 12.073 19.5178 12.5 20.9998 12.5C22.4818 12.5 23.2388 12.073 23.2463 12.069L23.7568 12.9285C23.7183 12.952 22.7843 13.5 20.9998 13.5C19.2153 13.5 18.2813 12.952 18.2423 12.9285L18.7533 12.069Z" fill="#09A66D"/>
</svg>
