<svg width="41" height="40" viewBox="0 0 41 40" fill="none" xmlns="http://www.w3.org/2000/svg">
<path d="M14.9615 27.8216H25.3526C25.6763 27.8216 25.9386 27.5593 25.9386 27.2357C25.9386 26.9121 25.6763 26.6498 25.3526 26.6498H14.9615C14.6379 26.6498 14.3755 26.9121 14.3755 27.2357C14.3755 27.5593 14.6379 27.8216 14.9615 27.8216ZM16.7975 14.3792H23.7539C24.2844 14.3792 24.7444 14.0381 24.8984 13.5305L26.3584 8.72008C26.4696 8.35391 26.4026 7.96758 26.1746 7.66023C25.9467 7.35289 25.5965 7.17664 25.2139 7.17664H24.6942L23.6322 4.5218C23.3881 3.91055 22.8051 3.51562 22.1468 3.51562H18.4046C17.7464 3.51562 17.1633 3.91055 16.9192 4.52148L15.8572 7.17656H15.3375C14.9548 7.17656 14.6047 7.35281 14.3767 7.66023C14.1487 7.96766 14.0818 8.35391 14.1929 8.72008L15.653 13.5305C15.807 14.0381 16.2669 14.3792 16.7975 14.3792ZM15.318 8.3582C15.3357 8.3343 18.5051 8.35617 18.5277 8.34844C18.8513 8.34844 19.1137 8.08609 19.1137 7.7625C19.1137 7.43891 18.8513 7.17656 18.5277 7.17656H17.1193L18.0072 4.95656C18.0726 4.79313 18.2285 4.6875 18.4046 4.6875H22.1468C22.3229 4.6875 22.4788 4.79313 22.5441 4.95672L23.4321 7.17656H21.262C20.9383 7.17656 20.6761 7.43891 20.6761 7.7625C20.6761 8.08609 20.9383 8.34844 21.262 8.34844C21.2817 8.34844 25.2183 8.33797 25.2333 8.3582C25.2508 8.38172 23.777 13.1655 23.777 13.1902C23.777 13.2423 16.7774 13.2005 16.7743 13.1902C16.7669 13.1656 15.3006 8.38164 15.318 8.3582ZM14.9615 33.667C14.6379 33.667 14.3755 33.9293 14.3755 34.2529C14.3755 34.5765 14.6379 34.8388 14.9615 34.8388H25.3526C25.6763 34.8388 25.9386 34.5765 25.9386 34.2529C25.9386 33.9293 25.6763 33.667 25.3526 33.667H14.9615ZM30.6261 31.9091C30.6261 31.5855 30.3638 31.3232 30.0401 31.3232H14.9615C14.6379 31.3232 14.3755 31.5855 14.3755 31.9091C14.3755 32.2327 14.6379 32.4951 14.9615 32.4951H30.0401C30.3638 32.4951 30.6261 32.2327 30.6261 31.9091ZM33.5558 25.6489C33.8794 25.6489 34.1417 25.3866 34.1417 25.063V2.92969C34.1417 1.31422 32.8275 0 31.212 0H9.33936C7.72389 0 6.40967 1.31422 6.40967 2.92969V37.0703C6.40967 38.6858 7.72389 40 9.33936 40H31.2121C32.8276 40 34.1418 38.6858 34.1418 37.0703V27.7973C34.1418 27.4737 33.8795 27.2114 33.5558 27.2114C33.2322 27.2114 32.9699 27.4737 32.9699 27.7973V37.0703C32.9699 38.0396 32.1813 38.8281 31.2121 38.8281H9.33936C8.37006 38.8281 7.58154 38.0396 7.58154 37.0703V2.92969C7.58154 1.96039 8.37006 1.17188 9.33936 1.17188H31.2121C32.1813 1.17188 32.9699 1.96039 32.9699 2.92969V25.063C32.9698 25.3866 33.2322 25.6489 33.5558 25.6489ZM12.6451 28.271C12.3565 28.2746 12.054 28.2774 11.7766 28.2788C11.9737 28.0113 12.2229 27.6663 12.5336 27.2223C12.8061 26.833 12.9989 26.4805 13.0491 26.1144C13.0573 26.0544 13.0731 25.9466 13.0731 25.8894C13.0731 25.0163 12.3629 24.3061 11.4898 24.3061C10.735 24.3061 10.0816 24.8432 9.93623 25.5831C9.87389 25.9006 10.0807 26.2087 10.3983 26.271C10.7158 26.3334 11.0238 26.1266 11.0862 25.809C11.1238 25.6171 11.2936 25.478 11.4898 25.478C11.7069 25.478 11.8852 25.6469 11.9002 25.8602C11.9151 26.0707 11.8076 26.2158 11.5735 26.5503C10.9579 27.4299 10.5906 27.9108 10.3933 28.1691C10.0489 28.6201 9.88428 29.2079 10.4809 29.4067C10.5579 29.4323 12.1046 29.4498 12.6597 29.4428C12.9833 29.4388 13.2423 29.1731 13.2383 28.8495C13.2342 28.5259 12.9658 28.2648 12.6451 28.271ZM30.0401 24.306H14.9615C14.6379 24.306 14.3755 24.5684 14.3755 24.892C14.3755 25.2155 14.6379 25.4779 14.9615 25.4779H30.0401C30.3638 25.4779 30.6261 25.2155 30.6261 24.892C30.6261 24.5684 30.3638 24.306 30.0401 24.306ZM11.5818 31.3232C10.8269 31.3232 10.1736 31.8603 10.0282 32.6002C9.96584 32.9177 10.1726 33.2258 10.4902 33.2881C10.8076 33.3504 11.1157 33.1437 11.1781 32.8261C11.2158 32.6342 11.3855 32.4951 11.5818 32.4951C11.8087 32.4951 11.9932 32.6796 11.9932 32.9065C11.9932 33.1334 11.8087 33.3179 11.5818 33.3179C11.2582 33.3179 10.9958 33.5802 10.9958 33.9038C10.9958 34.2274 11.2582 34.4898 11.5818 34.4898C11.8087 34.4898 11.9932 34.6743 11.9932 34.9012C11.9932 35.128 11.8087 35.3126 11.5818 35.3126C11.3776 35.3126 11.2025 35.1607 11.1744 34.959C11.1717 34.9401 11.1704 34.9206 11.1704 34.9012C11.1704 34.5776 10.908 34.3152 10.5844 34.3152C10.2608 34.3152 9.9985 34.5776 9.9985 34.9012C9.9985 35.7618 10.7126 36.4845 11.5818 36.4845C12.4548 36.4845 13.1651 35.7742 13.1651 34.9012C13.1651 34.5234 13.0316 34.1763 12.8099 33.9038C13.0316 33.6313 13.1651 33.2843 13.1651 32.9065C13.1651 32.0334 12.4548 31.3232 11.5818 31.3232ZM11.5818 22.3889C11.9054 22.3889 12.1677 22.1266 12.1677 21.803V17.9053C12.1677 17.5817 11.9054 17.3194 11.5818 17.3194H10.7487C10.4251 17.3194 10.1627 17.5817 10.1627 17.9053C10.1627 18.2289 10.4251 18.4913 10.7487 18.4913H10.9958V21.803C10.9958 22.1266 11.2582 22.3889 11.5818 22.3889ZM14.9615 20.835H25.3526C25.6763 20.835 25.9386 20.5727 25.9386 20.2491C25.9386 19.9255 25.6763 19.6631 25.3526 19.6631H14.9615C14.6379 19.6631 14.3755 19.9255 14.3755 20.2491C14.3755 20.5727 14.6379 20.835 14.9615 20.835ZM30.0401 17.3194H14.9615C14.6379 17.3194 14.3755 17.5817 14.3755 17.9053C14.3755 18.2289 14.6379 18.4913 14.9615 18.4913H30.0401C30.3638 18.4913 30.6261 18.2289 30.6261 17.9053C30.6261 17.5817 30.3638 17.3194 30.0401 17.3194Z" fill="#09A66D"/>
</svg>
