<svg width="32" height="32" viewBox="0 0 32 32" fill="none" xmlns="http://www.w3.org/2000/svg">
<g clip-path="url(#clip0_183_104)">
<path d="M31.9541 12.3286C31.8438 11.9891 31.5504 11.7418 31.1973 11.6905L21.2772 10.2489L16.8407 1.25975C16.6828 0.939686 16.3569 0.737186 16 0.737186C15.6432 0.737186 15.3173 0.939686 15.1593 1.25975L10.7226 10.2489L0.802679 11.6905C0.449617 11.7418 0.156118 11.9891 0.0459305 12.3285C-0.0643817 12.668 0.0276181 13.0405 0.283118 13.2895L7.4611 20.2867L5.76686 30.1668C5.70654 30.5186 5.85117 30.874 6.13986 31.0838C6.42854 31.2935 6.81117 31.3213 7.12717 31.1551L16 26.4903L24.8725 31.1551C25.0097 31.2272 25.1594 31.2628 25.3087 31.2628C25.5031 31.2628 25.6966 31.2024 25.8598 31.0838C26.1485 30.874 26.2931 30.5185 26.2328 30.1668L24.5381 20.2867L31.7168 13.2895C31.9724 13.0405 32.0644 12.6679 31.9541 12.3286Z" fill="#FED42D"/>
<path d="M31.954 12.3286C31.8438 11.9891 31.5504 11.7418 31.1973 11.6905L21.2772 10.2489L16.8407 1.25975C16.6827 0.939686 16.3569 0.737186 16 0.737186V26.4903L24.8726 31.1551C25.0097 31.2273 25.1595 31.2628 25.3087 31.2628C25.5031 31.2628 25.6966 31.2025 25.8599 31.0839C26.1485 30.8741 26.2932 30.5186 26.2329 30.1669L24.538 20.2867L31.7168 13.2895C31.9724 13.0405 32.0644 12.6679 31.954 12.3286Z" fill="#FCBF29"/>
</g>
<defs>
<clipPath id="clip0_183_104">
<rect width="32" height="32" fill="white"/>
</clipPath>
</defs>
</svg>
