<svg width="41" height="32" viewBox="0 0 41 32" fill="none" xmlns="http://www.w3.org/2000/svg">
<path d="M3.3125 7.65711H9.49203C9.81563 7.65711 10.078 7.39484 10.078 7.07117C10.078 6.7475 9.81563 6.48523 9.49203 6.48523H3.3125C2.98891 6.48523 2.72656 6.7475 2.72656 7.07117C2.72656 7.39484 2.98883 7.65711 3.3125 7.65711Z" fill="#09A66D"/>
<path d="M9.27996 10.4779H6.83887C6.51527 10.4779 6.25293 10.7402 6.25293 11.0638C6.25293 11.3875 6.51527 11.6498 6.83887 11.6498H9.27996C9.60356 11.6498 9.8659 11.3875 9.8659 11.0638C9.8659 10.7402 9.60356 10.4779 9.27996 10.4779Z" fill="#09A66D"/>
<path d="M0.861328 14.5413H6.83883C7.16242 14.5413 7.42477 14.279 7.42477 13.9553C7.42477 13.6317 7.16242 13.3694 6.83883 13.3694H0.861328C0.537734 13.3694 0.275391 13.6317 0.275391 13.9553C0.275391 14.279 0.537734 14.5413 0.861328 14.5413Z" fill="#09A66D"/>
<path d="M10.078 24.9288C10.078 24.6052 9.81563 24.3429 9.49203 24.3429H3.3125C2.98891 24.3429 2.72656 24.6052 2.72656 24.9288C2.72656 25.2525 2.98891 25.5148 3.3125 25.5148H9.49203C9.81563 25.5148 10.078 25.2525 10.078 24.9288Z" fill="#09A66D"/>
<path d="M9.27996 20.3503H6.83887C6.51527 20.3503 6.25293 20.6126 6.25293 20.9363C6.25293 21.26 6.51527 21.5222 6.83887 21.5222H9.27996C9.60356 21.5222 9.8659 21.26 9.8659 20.9363C9.8659 20.6126 9.60356 20.3503 9.27996 20.3503Z" fill="#09A66D"/>
<path d="M7.42477 18.0448C7.42477 17.7211 7.16242 17.4589 6.83883 17.4589H0.861328C0.537734 17.4589 0.275391 17.7211 0.275391 18.0448C0.275391 18.3685 0.537734 18.6307 0.861328 18.6307H6.83883C7.16242 18.6307 7.42477 18.3685 7.42477 18.0448Z" fill="#09A66D"/>
<path d="M25.2383 8.95553C25.562 8.95553 25.8242 8.69327 25.8242 8.36959V7.47522C25.8242 7.15155 25.562 6.88928 25.2383 6.88928C24.9146 6.88928 24.6523 7.15155 24.6523 7.47522V8.36959C24.6523 8.69327 24.9146 8.95553 25.2383 8.95553Z" fill="#09A66D"/>
<path d="M31.681 9.55767C31.4521 9.32892 31.0812 9.32892 30.8524 9.55767L30.22 10.1901C29.9911 10.419 29.9911 10.7899 30.22 11.0188C30.4489 11.2476 30.8198 11.2475 31.0486 11.0188L31.681 10.3863C31.9098 10.1575 31.9098 9.78658 31.681 9.55767Z" fill="#09A66D"/>
<path d="M32.8682 15.4141C32.5445 15.4141 32.2822 15.6763 32.2822 16C32.2822 16.3237 32.5445 16.5859 32.8682 16.5859H33.7625C34.0861 16.5859 34.3484 16.3237 34.3484 16C34.3484 15.6763 34.0861 15.4141 33.7625 15.4141H32.8682Z" fill="#09A66D"/>
<path d="M31.0486 20.9813C30.8197 20.7525 30.4488 20.7525 30.22 20.9813C29.9911 21.2102 29.9911 21.5811 30.22 21.8099L30.8524 22.4424C31.0814 22.6712 31.4522 22.6711 31.6811 22.4424C31.9099 22.2135 31.9099 21.8425 31.6811 21.6137L31.0486 20.9813Z" fill="#09A66D"/>
<path d="M24.6523 23.6305V24.5248C24.6523 24.8485 24.9146 25.1107 25.2383 25.1107C25.562 25.1107 25.8242 24.8485 25.8242 24.5248V23.6305C25.8242 23.3068 25.562 23.0446 25.2383 23.0446C24.9146 23.0446 24.6523 23.3069 24.6523 23.6305Z" fill="#09A66D"/>
<path d="M19.429 20.9813L18.7966 21.6137C18.5678 21.8426 18.5678 22.2135 18.7966 22.4424C19.0255 22.6712 19.3965 22.6711 19.6252 22.4424L20.2576 21.8099C20.4865 21.581 20.4865 21.2101 20.2576 20.9813C20.0289 20.7525 19.6579 20.7525 19.429 20.9813Z" fill="#09A66D"/>
<path d="M16.7134 15.4141C16.3898 15.4141 16.1274 15.6763 16.1274 16C16.1274 16.3237 16.3898 16.5859 16.7134 16.5859H17.6078C17.9313 16.5859 18.1937 16.3237 18.1937 16C18.1937 15.6763 17.9313 15.4141 17.6078 15.4141H16.7134Z" fill="#09A66D"/>
<path d="M20.2576 10.1901L19.6252 9.55767C19.3964 9.32892 19.0254 9.32892 18.7966 9.55767C18.5678 9.78658 18.5678 10.1575 18.7966 10.3863L19.429 11.0188C19.6579 11.2476 20.0289 11.2475 20.2576 11.0188C20.4865 10.7899 20.4865 10.419 20.2576 10.1901Z" fill="#09A66D"/>
<path d="M28.3891 16.0001C28.3891 15.6764 28.1268 15.4141 27.8031 15.4141H25.8242V11.0638C25.8242 10.7402 25.562 10.4779 25.2383 10.4779C24.9146 10.4779 24.6523 10.7402 24.6523 11.0638V16.0001C24.6523 16.3238 24.9146 16.586 25.2383 16.586H27.8031C28.1267 16.586 28.3891 16.3238 28.3891 16.0001Z" fill="#09A66D"/>
<path d="M36.3487 15.9033C36.6718 15.8837 36.9177 15.606 36.8981 15.283C36.5254 9.13436 31.4038 4.31787 25.2383 4.31787C18.7968 4.31787 13.5562 9.5585 13.5562 16.0001C13.5562 22.4417 18.7968 27.6823 25.2383 27.6823C31.0094 27.6823 35.9337 23.454 36.7903 17.7482C36.8383 17.4282 36.6179 17.1298 36.2978 17.0818C35.9786 17.0339 35.6794 17.2541 35.6314 17.5743C34.8619 22.7004 30.4356 26.5105 25.2383 26.5105C19.443 26.5105 14.728 21.7956 14.728 16.0002C14.728 10.2048 19.443 5.48982 25.2383 5.48982C30.7853 5.48982 35.393 9.82271 35.7283 15.3541C35.7479 15.6769 36.0254 15.9221 36.3487 15.9033Z" fill="#09A66D"/>
<path d="M25.239 0.963257C23.178 0.963257 21.1587 1.39084 19.3001 2.19044H8.96191C8.63832 2.19044 8.37598 2.45271 8.37598 2.77638C8.37598 3.10005 8.63832 3.36232 8.96191 3.36232H17.0957C15.996 4.07013 14.9836 4.92388 14.0909 5.90951C13.8737 6.14927 13.892 6.51982 14.1318 6.73709C14.3718 6.95435 14.7421 6.93599 14.9595 6.69615C17.5846 3.79755 21.3314 2.13513 25.239 2.13513C32.8842 2.13513 39.104 8.3549 39.104 16.0001C39.104 23.6451 32.8843 29.865 25.239 29.865C17.5939 29.865 11.3741 23.6452 11.3741 16.0001C11.3741 13.3229 12.1389 10.7244 13.5856 8.48552C13.7612 8.21373 13.6832 7.85107 13.4114 7.67545C13.1396 7.4999 12.777 7.57771 12.6013 7.84959C11.0318 10.2783 10.2022 13.0967 10.2022 16.0001C10.2022 21.2943 12.9527 25.9577 17.0995 28.6378H8.96199C8.6384 28.6378 8.37605 28.9001 8.37605 29.2237C8.37605 29.5474 8.6384 29.8097 8.96199 29.8097H19.2921C21.1171 30.5987 23.1278 31.0369 25.2391 31.0369C33.5303 31.0369 40.2759 24.2914 40.2759 16.0001C40.2759 7.70873 33.5303 0.963257 25.239 0.963257Z" fill="#09A66D"/>
</svg>
