<svg width="32" height="32" viewBox="0 0 32 32" fill="none" xmlns="http://www.w3.org/2000/svg">
<g clip-path="url(#clip0_149_196)">
<path d="M16.0022 0C11.4308 0 7.69385 3.73694 7.69385 8.3084C7.69385 12.8799 11.4308 16.6168 16.0022 16.6168C20.5737 16.6168 24.3106 12.8799 24.3106 8.3084C24.3106 3.73694 20.5737 0 16.0022 0Z" fill="#09A66D"/>
<path d="M30.2609 23.2563C30.0432 22.712 29.753 22.2041 29.4264 21.7324C27.7575 19.2653 25.1816 17.6326 22.2791 17.2335C21.9163 17.1973 21.5172 17.2698 21.2269 17.4875C19.7031 18.6122 17.8891 19.1927 16.0024 19.1927C14.1157 19.1927 12.3017 18.6122 10.7779 17.4875C10.4876 17.2698 10.0885 17.161 9.72574 17.2335C6.82324 17.6326 4.21102 19.2653 2.57838 21.7324C2.25185 22.2041 1.96158 22.7483 1.74394 23.2563C1.63512 23.474 1.67137 23.7279 1.78019 23.9456C2.07046 24.4535 2.43324 24.9615 2.75977 25.3969C3.26769 26.0863 3.81192 26.703 4.42873 27.2835C4.93664 27.7914 5.51713 28.2631 6.09769 28.7347C8.96387 30.8754 12.4106 32 15.9662 32C19.5217 32 22.9685 30.8753 25.8346 28.7347C26.4151 28.2994 26.9956 27.7914 27.5036 27.2835C28.0841 26.703 28.6646 26.0862 29.1725 25.3969C29.5353 24.9252 29.8619 24.4535 30.1521 23.9456C30.3335 23.7279 30.3697 23.4739 30.2609 23.2563Z" fill="#09A66D"/>
</g>
<defs>
<clipPath id="clip0_149_196">
<rect width="32" height="32" fill="white"/>
</clipPath>
</defs>
</svg>
